<?xml version="1.0" encoding="UTF-8"?>
<svg id="Layer_1" data-name="Layer 1" xmlns="http://www.w3.org/2000/svg" viewBox="0 0 300.56 39.69">
  <defs>
    <style>
      .cls-1 {
        fill: #1a2e3e;
      }
    </style>
  </defs>
  <path class="cls-1" d="m19.84,0C8.88,0,0,8.88,0,19.84s8.88,19.84,19.84,19.84,19.84-8.88,19.84-19.84S30.8,0,19.84,0Zm-.07,36.63c-4.34,0-7.86-3.52-7.86-7.86s3.52-7.86,7.86-7.86,7.86,3.52,7.86,7.86-3.52,7.86-7.86,7.86Z"/>
  <g>
    <path class="cls-1" d="m135.33,18.14l-6.98,10.88c-.24.39-.81.7-1.27.7h-2.49c-.46,0-1.03-.32-1.27-.7l-6.98-10.88v16.38c0,.44-.35.84-.84.84h-4.06c-.44,0-.84-.4-.84-.84V5.29c0-.44.4-.84.84-.84h2.51c.34,0,.77.24.95.53l10.83,17.79h.22l10.83-17.79c.18-.29.6-.53.95-.53h2.52c.44,0,.84.4.84.84v29.23c0,.44-.4.84-.84.84h-4.06c-.49,0-.84-.4-.84-.84v-16.38Z"/>
    <path class="cls-1" d="m76.86,34.22l13.73-29.72c.13-.27.35-.49.75-.49h.44c.44,0,.62.22.75.49l13.6,29.72c.27.57-.09,1.15-.75,1.15h-3.84c-.66,0-.97-.27-1.28-.88l-2.17-4.77h-13.2l-2.16,4.77c-.18.44-.57.88-1.28.88h-3.84c-.66,0-1.02-.57-.75-1.15Zm19.08-9.41l-4.42-9.72h-.13l-4.33,9.72h8.88Z"/>
    <path class="cls-1" d="m148.57,5.29c0-.44.35-.84.84-.84h10.11c5.25,0,9.32,3.53,9.32,8.17,0,3.4-2.78,6.05-4.86,7.02,2.34.75,5.74,3.13,5.74,7.2,0,4.95-4.24,8.52-9.63,8.52h-10.69c-.49,0-.84-.4-.84-.84V5.29Zm10.42,12.14c2.25,0,3.8-1.77,3.8-3.97s-1.55-3.75-3.8-3.75h-4.72v7.73h4.72Zm.62,12.72c2.21,0,3.97-1.72,3.97-4.02s-2.21-3.84-4.5-3.84h-4.81v7.86h5.34Z"/>
    <path class="cls-1" d="m175.22,5.29c0-.44.35-.84.84-.84h12.63c5.3,0,9.63,4.24,9.63,9.49,0,4.06-2.69,7.37-6.54,8.92l6.05,11.22c.31.57,0,1.28-.75,1.28h-4.64c-.4,0-.62-.22-.71-.4l-5.87-11.7h-4.9v11.26c0,.44-.4.84-.84.84h-4.06c-.49,0-.84-.4-.84-.84V5.29Zm12.98,13.25c2.34,0,4.37-2.03,4.37-4.5,0-2.34-2.03-4.28-4.37-4.28h-7.2v8.79h7.2Z"/>
    <path class="cls-1" d="m204.29,5.29c0-.44.4-.84.84-.84h4.11c.44,0,.84.4.84.84v29.23c0,.44-.4.84-.84.84h-4.11c-.44,0-.84-.4-.84-.84V5.29Z"/>
    <path class="cls-1" d="m217.38,5.29c0-.44.35-.84.79-.84h10.47c8.52,0,15.5,6.93,15.5,15.41s-6.98,15.5-15.5,15.5h-10.47c-.44,0-.79-.4-.79-.84V5.29Zm10.73,24.69c5.74,0,9.94-4.33,9.94-10.11s-4.19-10.07-9.94-10.07h-5.03v20.18h5.03Z"/>
    <path class="cls-1" d="m280.91,5.29c0-.44.35-.84.84-.84h17.97c.49,0,.84.4.84.84v3.62c0,.44-.35.84-.84.84h-13.07v7.24h10.91c.44,0,.84.4.84.84v3.67c0,.49-.4.84-.84.84h-10.91v7.73h13.07c.49,0,.84.4.84.84v3.62c0,.44-.35.84-.84.84h-17.97c-.49,0-.84-.4-.84-.84V5.29Z"/>
    <path class="cls-1" d="m74.09,30.63h0s-.25-.62-.25-.62h0s-.54-1.33-.54-1.33l-.8-1.99c-.21-.53-.69-.6-1.05-.17,0,0-.54.64-1.27,1.22-.02.01-.02.02-.03.02-.25.19-.5.36-.76.53-.17.11-.34.22-.52.32-1.5.87-3.21,1.4-5.13,1.4-5.65,0-9.89-4.68-9.89-10.2s4.19-10.29,9.85-10.29c.51,0,1.01.05,1.5.12.03,0,.06,0,.1.01,1.87.29,3.56,1.11,4.94,2.27l.82.68c.39.4.89.31,1.1-.22l1.46-3.62c.21-.52.02-1.23-.43-1.57l-.46-.32h0c-.08-.06-.16-.11-.24-.17l-.45-.32s-.03-.01-.05-.02c-2.39-1.55-5.05-2.38-8.41-2.38-8.83,0-15.94,7.11-15.94,15.94s7.11,15.85,15.94,15.85c3.42,0,6.72-1.06,9.5-3.25.26-.2.56-.43.86-.69.31-.3.35-.78.17-1.24Z"/>
    <path class="cls-1" d="m273.96,20.04h-8.48c-.49,0-.84.35-.84.84v3.49c0,.44.35.8.84.8h3.53v3.75c-.88.35-2.78,1.1-5.26,1.1-5.56,0-9.94-4.64-9.94-10.11s4.37-10.25,9.89-10.25c1.68,0,3.3.45,4.77,1.26.16.1.36.22.57.35.32.21.65.43.95.67.05.04.11.08.16.12.49.42.65.6.65.6.38.43.87.35,1.08-.18l1.52-3.76c.22-.53,0-1.24-.47-1.56l-.28-.19c-.81-.56-1.67-1.04-2.56-1.45l-.25-.12s-.1-.05-.14-.06c-1.97-.85-4.09-1.34-6.28-1.34-8.79,0-15.85,7.11-15.85,15.94s7.06,15.81,15.85,15.81c6.4,0,10.95-2.87,10.95-2.87.18-.13.35-.35.35-.71v-11.3c0-.44-.35-.84-.8-.84Z"/>
  </g>
</svg>