<?xml version="1.0" standalone="no"?>
<!DOCTYPE svg PUBLIC "-//W3C//DTD SVG 1.1//EN" "http://www.w3.org/Graphics/SVG/1.1/DTD/svg11.dtd">
<svg xmlns="http://www.w3.org/2000/svg" width="23" height="26" viewBox="0 0 23 26" fill="none">
  <path d="M1.14014 0C0.506728 0 0 0.506823 0 1.11501V21.0331C0 21.6413 0.506728 22.0214 1.1148 22.0214H4.05382V26L7.70226 22.0468H21.0292C21.6373 22.0468 22.0173 21.6667 22.0173 21.0331V1.14035C22.0173 0.532164 21.6626 0 21.0292 0H1.14014Z" fill="#00B3B0"/>
  <path d="M14.261 3.98086C14.7674 3.98086 15.1979 4.08216 15.603 4.31008C15.9828 4.51268 16.3373 4.79125 16.6158 5.12047C17.1831 5.81234 17.488 6.68228 17.4768 7.57697C17.4768 8.23541 17.2995 8.86852 16.9703 9.47632C16.6291 10.0877 16.0948 10.5686 15.4511 10.8438C16.2614 11.0718 16.8944 11.477 17.3755 12.0594C17.8313 12.6672 18.0592 13.4523 18.0592 14.44C18.0592 15.0731 17.9437 15.6371 17.7047 16.0607C17.4514 16.5166 17.0716 16.8964 16.6158 17.175C16.1347 17.4789 15.603 17.7575 14.9953 17.8841C14.3876 18.0361 13.7292 18.1627 13.0456 18.1627H4.08186V3.98086H14.261ZM12.8067 11.9069H7.73191V14.3026H12.6847C12.9775 14.3026 13.2459 14.1828 13.4655 13.9911C13.6607 13.7995 13.7827 13.512 13.7827 13.1527C13.7897 12.8444 13.6957 12.542 13.5143 12.2902C13.3191 12.0507 13.0995 11.9069 12.8067 11.9069ZM12.392 7.11573H7.73191V9.27178H12.2944C12.5384 9.27178 12.7823 9.152 12.9775 9.00826C13.1971 8.86453 13.2947 8.5531 13.2947 8.14584C13.2947 7.7865 13.1971 7.52299 13.0263 7.35529C12.8555 7.21156 12.636 7.11573 12.392 7.11573Z" fill="white"/>
</svg>